<svg width="101" height="106" viewBox="0 0 101 106" fill="none" xmlns="http://www.w3.org/2000/svg">
<path d="M1 27.4351L48.5099 48.5508L51.7258 41.3147L4.21589 20.1992L1 27.4351ZM54.077 103V44.9327H46.1587V103H54.077ZM51.7258 48.5508L99.2357 27.4351L96.0198 20.1992L48.5099 41.3147L51.7258 48.5508Z" fill="black"/>
<path d="M2.60791 79.8262V25.8751C2.60791 24.6235 3.34505 23.4892 4.48888 22.9808L48.8314 3.27298C49.6507 2.90901 50.585 2.90901 51.4043 3.27298L95.7469 22.9808C96.8908 23.4892 97.6278 24.6235 97.6278 25.8751V79.8262C97.6278 81.0779 96.8908 82.2123 95.7469 82.7206L51.4043 102.428C50.585 102.792 49.6507 102.792 48.8314 102.428L4.48888 82.7206C3.34505 82.2123 2.60791 81.0779 2.60791 79.8262Z" stroke="black" stroke-width="4.95363" stroke-linecap="round" stroke-linejoin="round"/>
<path d="M26.3628 13.259L71.9918 33.5386C73.1358 34.0469 73.8727 35.1812 73.8727 36.4329V55.4901" stroke="black" stroke-width="4.95363" stroke-linecap="round" stroke-linejoin="round"/>
</svg>
